<svg 
 xmlns="http://www.w3.org/2000/svg"
 xmlns:xlink="http://www.w3.org/1999/xlink"
 width="21px" height="19px">
<defs>
<filter id="Filter_0">
    <feFlood flood-color="rgb(85, 85, 85)" flood-opacity="1" result="floodOut" />
    <feComposite operator="atop" in="floodOut" in2="SourceGraphic" result="compOut" />
    <feBlend mode="normal" in="compOut" in2="SourceGraphic" />
</filter>

</defs>
<g filter="url(#Filter_0)">
<path fill-rule="evenodd"  fill="rgb(0, 0, 0)"
 d="M20.472,10.019 C20.342,10.169 20.175,10.257 19.971,10.281 L7.212,11.773 C7.221,11.829 7.239,11.917 7.267,12.035 C7.296,12.153 7.320,12.261 7.341,12.359 C7.361,12.456 7.371,12.546 7.371,12.628 C7.371,12.758 7.273,13.019 7.078,13.410 L18.321,13.410 C18.533,13.410 18.716,13.487 18.871,13.642 C19.026,13.797 19.103,13.980 19.103,14.192 C19.103,14.404 19.026,14.587 18.871,14.742 C18.716,14.897 18.533,14.974 18.321,14.974 L17.539,14.974 L6.589,14.974 L5.807,14.974 C5.595,14.974 5.412,14.897 5.257,14.742 C5.102,14.587 5.025,14.404 5.025,14.192 C5.025,14.078 5.070,13.917 5.159,13.709 C5.249,13.501 5.369,13.259 5.520,12.982 C5.670,12.705 5.754,12.550 5.770,12.518 L3.607,2.460 L1.114,2.460 C0.903,2.460 0.719,2.382 0.564,2.227 C0.409,2.073 0.332,1.890 0.332,1.678 C0.332,1.466 0.409,1.283 0.564,1.128 C0.719,0.973 0.902,0.895 1.114,0.895 L4.243,0.895 C4.373,0.895 4.489,0.922 4.591,0.975 C4.693,1.028 4.775,1.091 4.836,1.164 C4.897,1.237 4.949,1.337 4.994,1.463 C5.039,1.590 5.070,1.698 5.086,1.788 C5.102,1.877 5.125,1.997 5.153,2.148 C5.182,2.299 5.200,2.403 5.208,2.459 L19.886,2.459 C20.098,2.459 20.281,2.537 20.436,2.692 C20.590,2.847 20.668,3.030 20.668,3.242 L20.668,9.499 C20.668,9.695 20.603,9.868 20.472,10.019 ZM19.104,16.538 C19.104,16.971 18.951,17.339 18.645,17.645 C18.340,17.950 17.971,18.103 17.539,18.103 C17.107,18.103 16.739,17.950 16.433,17.645 C16.128,17.339 15.975,16.971 15.975,16.538 C15.975,16.107 16.128,15.738 16.433,15.432 C16.739,15.127 17.107,14.974 17.539,14.974 C17.971,14.974 18.340,15.127 18.645,15.432 C18.951,15.738 19.104,16.107 19.104,16.538 ZM8.153,16.538 C8.153,16.971 8.001,17.339 7.695,17.645 C7.390,17.950 7.021,18.103 6.589,18.103 C6.157,18.103 5.789,17.950 5.483,17.645 C5.177,17.339 5.025,16.971 5.025,16.538 C5.025,16.107 5.178,15.738 5.483,15.432 C5.789,15.127 6.157,14.974 6.589,14.974 C7.021,14.974 7.390,15.127 7.695,15.432 C8.001,15.738 8.153,16.107 8.153,16.538 Z"/>
</g>
</svg>