<svg xmlns="http://www.w3.org/2000/svg" xmlns:xlink="http://www.w3.org/1999/xlink" width="16" height="16" viewBox="0 0 16 16">
  <defs>
    <style>
      .cls-1 {
        fill-rule: evenodd;
        filter: url(#filter);
      }
    </style>
    <filter id="filter" x="1396" y="5178" width="16" height="16" filterUnits="userSpaceOnUse">
      <feFlood result="flood" flood-color="#464646"/>
      <feComposite result="composite" operator="in" in2="SourceGraphic"/>
      <feBlend result="blend" in2="SourceGraphic"/>
    </filter>
  </defs>
  <path id="google_" data-name="google+" class="cls-1" d="M1409,5178h-10a3,3,0,0,0-3,3v10a3,3,0,0,0,3,3h10a3,3,0,0,0,3-3v-10A3,3,0,0,0,1409,5178Zm-7.23,13.38c-1.77,0-3.27-.72-3.27-1.87,0-1.17,1.37-2.3,3.14-2.3h0.55a1.261,1.261,0,0,1-.43-0.88,1.222,1.222,0,0,1,.16-0.6l-0.3.01a2.312,2.312,0,0,1-2.43-2.32,2.69,2.69,0,0,1,2.78-2.34h3.19l-0.72.52h-1.01a1.9,1.9,0,0,1,1.03,1.84,2.144,2.144,0,0,1-.9,1.67,1.032,1.032,0,0,0-.61.91,2.055,2.055,0,0,0,.84.99,2.233,2.233,0,0,1,1.11,2.08C1404.9,5190.24,1403.79,5191.38,1401.77,5191.38Zm8.23-6.36h-2v1.99h-1v-1.99h-2V5184h2v-2h1v2h2v1.02Zm-6.69-1.52a2.133,2.133,0,0,0-1.74-1.97c-0.82-.02-1.37.81-1.23,1.89a2.137,2.137,0,0,0,1.74,1.99C1402.9,5185.44,1403.46,5184.58,1403.31,5183.5Zm-0.54,4.14a2.515,2.515,0,0,0-.79-0.13c-1.23-.01-2.33.75-2.33,1.66a1.917,1.917,0,0,0,2.11,1.71c1.72,0,2.32-.73,2.32-1.66a1.149,1.149,0,0,0-.04-0.33A2.544,2.544,0,0,0,1402.77,5187.64Z" transform="translate(-1396 -5178)"/>
</svg>
