<svg xmlns="http://www.w3.org/2000/svg" xmlns:xlink="http://www.w3.org/1999/xlink" width="16" height="16" viewBox="0 0 16 16">
  <defs>
    <style>
      .cls-1 {
        fill-rule: evenodd;
        filter: url(#filter);
      }
    </style>
    <filter id="filter" x="1440" y="5178" width="16" height="16" filterUnits="userSpaceOnUse">
      <feFlood result="flood" flood-color="#464646"/>
      <feComposite result="composite" operator="in" in2="SourceGraphic"/>
      <feBlend result="blend" in2="SourceGraphic"/>
    </filter>
  </defs>
  <path id="pinterest" class="cls-1" d="M1453,5178h-10a3,3,0,0,0-3,3v10a3,3,0,0,0,3,3h10a3,3,0,0,0,3-3v-10A3,3,0,0,0,1453,5178Zm-4.38,10.16a2.51,2.51,0,0,1-1.28-.61c-0.26,1.32-.56,2.59-1.48,3.25-0.28-2,.42-3.5.74-5.09-0.55-.93.07-2.79,1.23-2.33,1.42,0.56-1.24,3.44.55,3.8,1.86,0.38,2.63-3.24,1.47-4.42-1.67-1.69-4.87-.03-4.48,2.4,0.1,0.59.71,0.77,0.25,1.59-1.07-.24-1.39-1.08-1.35-2.21a3.6,3.6,0,0,1,3.25-3.31c2.02-.22,3.91.74,4.17,2.64C1451.98,5186.01,1450.78,5188.33,1448.62,5188.16Z" transform="translate(-1440 -5178)"/>
</svg>
