<svg xmlns="http://www.w3.org/2000/svg" xmlns:xlink="http://www.w3.org/1999/xlink" width="16" height="16" viewBox="0 0 16 16">
  <defs>
    <style>
      .cls-1 {
        fill-rule: evenodd;
        filter: url(#filter);
      }
    </style>
    <filter id="filter" x="1484" y="5178" width="16" height="16" filterUnits="userSpaceOnUse">
      <feFlood result="flood" flood-color="#464646"/>
      <feComposite result="composite" operator="in" in2="SourceGraphic"/>
      <feBlend result="blend" in2="SourceGraphic"/>
    </filter>
  </defs>
  <path id="rss" class="cls-1" d="M1497,5178h-10a3,3,0,0,0-3,3v10a3,3,0,0,0,3,3h10a3,3,0,0,0,3-3v-10A3,3,0,0,0,1497,5178Zm-8.69,12.98a1.3,1.3,0,1,1,1.31-1.3A1.31,1.31,0,0,1,1488.31,5190.98Zm3.28,0.01a4.575,4.575,0,0,0-4.58-4.59v-1.88a6.472,6.472,0,0,1,6.46,6.47h-1.88Zm3.33-.01a7.919,7.919,0,0,0-7.9-7.91v-1.87a9.8,9.8,0,0,1,9.78,9.78h-1.88Z" transform="translate(-1484 -5178)"/>
</svg>
