<svg 
 xmlns="http://www.w3.org/2000/svg"
 xmlns:xlink="http://www.w3.org/1999/xlink"
 width="19px" height="19px">
<defs>
<filter id="Filter_0">
    <feFlood flood-color="rgb(85, 85, 85)" flood-opacity="1" result="floodOut" />
    <feComposite operator="atop" in="floodOut" in2="SourceGraphic" result="compOut" />
    <feBlend mode="normal" in="compOut" in2="SourceGraphic" />
</filter>

</defs>
<g filter="url(#Filter_0)">
<path fill-rule="evenodd"  fill="rgb(0, 0, 0)"
 d="M18.244,16.253 L14.472,12.480 C15.381,11.168 15.836,9.704 15.836,8.092 C15.836,7.043 15.632,6.040 15.225,5.084 C14.818,4.127 14.268,3.301 13.575,2.608 C12.882,1.915 12.058,1.366 11.101,0.959 C10.144,0.551 9.141,0.348 8.092,0.348 C7.044,0.348 6.041,0.551 5.084,0.959 C4.127,1.366 3.302,1.915 2.609,2.608 C1.916,3.301 1.366,4.127 0.959,5.084 C0.552,6.040 0.349,7.043 0.349,8.092 C0.349,9.140 0.552,10.143 0.959,11.099 C1.366,12.056 1.916,12.881 2.609,13.574 C3.302,14.267 4.127,14.817 5.084,15.224 C6.041,15.631 7.044,15.835 8.092,15.835 C9.706,15.835 11.168,15.380 12.481,14.471 L16.253,18.232 C16.517,18.511 16.847,18.650 17.243,18.650 C17.624,18.650 17.955,18.511 18.233,18.232 C18.512,17.954 18.651,17.624 18.651,17.242 C18.651,16.854 18.516,16.524 18.244,16.253 ZM11.573,11.572 C10.609,12.536 9.449,13.019 8.092,13.019 C6.736,13.019 5.575,12.536 4.611,11.572 C3.647,10.608 3.165,9.448 3.165,8.092 C3.165,6.735 3.647,5.575 4.611,4.610 C5.575,3.646 6.736,3.163 8.092,3.163 C9.449,3.163 10.609,3.646 11.573,4.610 C12.538,5.575 13.020,6.735 13.020,8.092 C13.020,9.448 12.538,10.608 11.573,11.572 Z"/>
</g>
</svg>