<svg xmlns="http://www.w3.org/2000/svg" xmlns:xlink="http://www.w3.org/1999/xlink" width="16" height="16" viewBox="0 0 16 16">
  <defs>
    <style>
      .cls-1 {
        fill-rule: evenodd;
        filter: url(#filter);
      }
    </style>
    <filter id="filter" x="1328" y="5178" width="16" height="16" filterUnits="userSpaceOnUse">
      <feFlood result="flood" flood-color="#464646"/>
      <feComposite result="composite" operator="in" in2="SourceGraphic"/>
      <feBlend result="blend" in2="SourceGraphic"/>
    </filter>
  </defs>
  <path id="twitter" class="cls-1" d="M1341,5178h-10a3,3,0,0,0-3,3v10a3,3,0,0,0,3,3h10a3,3,0,0,0,3-3v-10A3,3,0,0,0,1341,5178Zm-1.02,6.2,0.01,0.26a5.613,5.613,0,0,1-8.63,4.72c0.16,0.01.31,0.03,0.47,0.03a3.955,3.955,0,0,0,2.45-.85,1.958,1.958,0,0,1-1.84-1.37,1.5,1.5,0,0,0,.37.04,1.813,1.813,0,0,0,.52-0.07,1.973,1.973,0,0,1-1.58-1.93V5185a1.914,1.914,0,0,0,.89.25,1.962,1.962,0,0,1-.61-2.63,5.585,5.585,0,0,0,4.06,2.06,2.215,2.215,0,0,1-.05-0.45,1.974,1.974,0,0,1,3.41-1.35,4.09,4.09,0,0,0,1.25-.47,2,2,0,0,1-.87,1.09,4.193,4.193,0,0,0,1.13-.31A3.922,3.922,0,0,1,1339.98,5184.2Z" transform="translate(-1328 -5178)"/>
</svg>
